<?xml version="1.0" encoding="utf-8"?>
<!-- Generator: Adobe Illustrator 24.0.0, SVG Export Plug-In . SVG Version: 6.00 Build 0)  -->
<svg version="1.1" id="Layer_1" xmlns="http://www.w3.org/2000/svg" xmlns:xlink="http://www.w3.org/1999/xlink" x="0px" y="0px"
	 viewBox="0 0 542.5 150" style="enable-background:new 0 0 542.5 150;" xml:space="preserve">
<style type="text/css">
	.st0{fill:#133959;}
	.st1{fill:#6E6F72;stroke:#6E6F72;stroke-width:0.5;stroke-miterlimit:10;}
	.st2{fill:#FFC21B;}
</style>
<polygon class="st0" points="93.5,2.8 71.2,2.8 3.8,122.3 13,140.4 82,21.1 111.9,71.6 131.8,71.6 "/>
<polygon class="st0" points="61.3,81.7 139.5,81.7 163.2,122.3 153.2,140.4 128,99.3 52.9,99.3 "/>
<polygon class="st0" points="117.2,2.8 137.2,2.8 177.8,71.6 218.4,2.8 239.8,2.8 239.8,147.3 223,147.3 223,34.9 178.5,107 "/>
<g>
	<path class="st1" d="M260.9,26.3c0.7,0.6,1.3,1,1.8,1.2c0.5,0.2,0.9,0.3,1.4,0.3c0.7,0,1.4-0.3,2-0.8c0.6-0.5,0.9-1.2,0.9-2.1
		c0-0.6-0.2-1.2-0.6-1.6c-0.4-0.4-1.1-0.8-2.2-1.3c-2.2-0.8-3.3-2.1-3.3-3.7c0-1.1,0.4-2,1.2-2.8c0.8-0.8,1.7-1.1,2.8-1.1
		c0.9,0,1.8,0.3,2.7,1v1.9c-0.6-0.6-1.1-0.9-1.5-1.1c-0.4-0.2-0.8-0.3-1.2-0.3c-0.7,0-1.3,0.2-1.8,0.7c-0.5,0.5-0.7,1.1-0.7,1.7
		c0,0.7,0.2,1.2,0.6,1.6c0.4,0.4,1.2,0.8,2.3,1.3c0.7,0.3,1.2,0.6,1.6,0.8c0.4,0.3,0.8,0.7,1,1.2c0.3,0.5,0.4,1.1,0.4,1.8
		c0,1.2-0.4,2.3-1.3,3.1c-0.9,0.8-1.9,1.3-3,1.3c-1,0-2.1-0.4-3.2-1.2V26.3z"/>
	<path class="st1" d="M270.4,14.7h7v1.2h-5.6V21h5.3v1.2h-5.3v5.7h5.6v1.2h-7V14.7z"/>
	<path class="st1" d="M279.7,14.7h3.5c1.2,0,2.3,0.3,3,0.9c0.8,0.6,1.1,1.4,1.1,2.6c0,0.9-0.2,1.7-0.7,2.3c-0.5,0.6-1.2,1.1-2.2,1.5
		c0.7,0.2,1.2,0.5,1.5,0.9c0.3,0.4,0.6,1.1,0.8,1.9l0.8,4.3H286l-0.6-3.5c-0.2-1.1-0.5-1.9-0.9-2.4c-0.4-0.5-1.1-0.7-1.9-0.7H281
		v6.6h-1.4V14.7z M281,16v5.4h1.4c1,0,1.8-0.3,2.5-0.8c0.6-0.5,0.9-1.3,0.9-2.2c0-0.8-0.2-1.4-0.7-1.8c-0.4-0.4-1.1-0.6-2-0.6H281z"
		/>
	<path class="st1" d="M288,14.7h1.5l3.2,12.5l3-12.5h1.5l-3.9,14.4H292L288,14.7z"/>
	<path class="st1" d="M298.7,14.7h1.4v14.4h-1.4V14.7z"/>
	<path class="st1" d="M309.7,28.4c-1,0.6-1.9,0.9-2.7,0.9c-1,0-1.8-0.3-2.6-1c-0.7-0.7-1.3-1.6-1.6-2.7c-0.3-1.2-0.5-2.4-0.5-3.7
		c0-2.2,0.4-4,1.3-5.3c0.9-1.4,2-2.1,3.5-2.1c0.9,0,1.7,0.3,2.6,0.9V17c-0.9-0.8-1.8-1.3-2.5-1.3c-1,0-1.9,0.6-2.5,1.7
		c-0.6,1.1-0.9,2.7-0.9,4.7c0,1.7,0.3,3.1,0.9,4.2c0.6,1.1,1.4,1.7,2.4,1.7c0.8,0,1.7-0.4,2.6-1.3V28.4z"/>
	<path class="st1" d="M311.5,14.7h1.4v14.4h-1.4V14.7z"/>
	<path class="st1" d="M319.7,14.5c1.4,0,2.5,0.7,3.4,2c0.9,1.3,1.3,3.2,1.3,5.6c0,2.2-0.4,3.9-1.3,5.2c-0.9,1.3-2,2-3.4,2
		c-1.4,0-2.5-0.6-3.4-1.9c-0.9-1.3-1.3-3.1-1.3-5.3c0-2.3,0.4-4.2,1.3-5.5C317.1,15.2,318.2,14.5,319.7,14.5z M319.8,15.8
		c-1.2,0-2,0.6-2.5,1.8c-0.5,1.2-0.8,2.7-0.8,4.6c0,1.8,0.3,3.2,0.9,4.3c0.6,1.1,1.4,1.6,2.4,1.6c1,0,1.8-0.5,2.4-1.6
		c0.6-1.1,0.9-2.6,0.9-4.5c0-2.1-0.3-3.6-0.9-4.6S320.6,15.8,319.8,15.8z"/>
	<path class="st1" d="M325.7,26.3c0.7,0.6,1.3,1,1.8,1.2c0.5,0.2,0.9,0.3,1.4,0.3c0.7,0,1.4-0.3,2-0.8c0.6-0.5,0.9-1.2,0.9-2.1
		c0-0.6-0.2-1.2-0.6-1.6c-0.4-0.4-1.1-0.8-2.2-1.3c-2.2-0.8-3.3-2.1-3.3-3.7c0-1.1,0.4-2,1.2-2.8c0.8-0.8,1.7-1.1,2.8-1.1
		c0.9,0,1.8,0.3,2.7,1v1.9c-0.6-0.6-1.1-0.9-1.5-1.1c-0.4-0.2-0.8-0.3-1.2-0.3c-0.7,0-1.3,0.2-1.8,0.7c-0.5,0.5-0.7,1.1-0.7,1.7
		c0,0.7,0.2,1.2,0.6,1.6c0.4,0.4,1.2,0.8,2.3,1.3c0.7,0.3,1.2,0.6,1.6,0.8c0.4,0.3,0.8,0.7,1,1.2c0.3,0.5,0.4,1.1,0.4,1.8
		c0,1.2-0.4,2.3-1.3,3.1c-0.9,0.8-1.9,1.3-3,1.3c-1,0-2.1-0.4-3.2-1.2V26.3z"/>
	<path class="st1" d="M339.9,14.7h3.3c1.7,0,2.9,0.6,3.7,1.9c0.8,1.2,1.2,3.1,1.2,5.4c0,1.3-0.2,2.6-0.6,3.7c-0.4,1.1-1,2-1.7,2.5
		c-0.8,0.6-1.7,0.8-2.7,0.8h-3.3V14.7z M341.3,16v11.9h1.9c1.3,0,2.2-0.5,2.7-1.6c0.5-1.1,0.8-2.6,0.8-4.7c0-1.8-0.3-3.2-0.9-4.2
		c-0.6-1-1.5-1.4-2.7-1.4H341.3z"/>
	<path class="st1" d="M350.3,14.7h7v1.2h-5.6V21h5.3v1.2h-5.3v5.7h5.6v1.2h-7V14.7z"/>
	<path class="st1" d="M364.3,14.7h3.3c1.7,0,2.9,0.6,3.7,1.9c0.8,1.2,1.2,3.1,1.2,5.4c0,1.3-0.2,2.6-0.6,3.7c-0.4,1.1-1,2-1.7,2.5
		c-0.8,0.6-1.7,0.8-2.7,0.8h-3.3V14.7z M365.7,16v11.9h1.9c1.3,0,2.2-0.5,2.7-1.6c0.5-1.1,0.8-2.6,0.8-4.7c0-1.8-0.3-3.2-0.9-4.2
		c-0.6-1-1.5-1.4-2.7-1.4H365.7z"/>
	<path class="st1" d="M374.7,14.7h1.4v14.4h-1.4V14.7z"/>
	<path class="st1" d="M378.1,26.3c0.7,0.6,1.3,1,1.8,1.2c0.5,0.2,0.9,0.3,1.4,0.3c0.7,0,1.4-0.3,2-0.8c0.6-0.5,0.9-1.2,0.9-2.1
		c0-0.6-0.2-1.2-0.6-1.6c-0.4-0.4-1.1-0.8-2.2-1.3c-2.2-0.8-3.3-2.1-3.3-3.7c0-1.1,0.4-2,1.2-2.8c0.8-0.8,1.7-1.1,2.8-1.1
		c0.9,0,1.8,0.3,2.7,1v1.9c-0.6-0.6-1.1-0.9-1.5-1.1c-0.4-0.2-0.8-0.3-1.2-0.3c-0.7,0-1.3,0.2-1.8,0.7c-0.5,0.5-0.7,1.1-0.7,1.7
		c0,0.7,0.2,1.2,0.6,1.6c0.4,0.4,1.2,0.8,2.3,1.3c0.7,0.3,1.2,0.6,1.6,0.8c0.4,0.3,0.8,0.7,1,1.2c0.3,0.5,0.4,1.1,0.4,1.8
		c0,1.2-0.4,2.3-1.3,3.1c-0.9,0.8-1.9,1.3-3,1.3c-1,0-2.1-0.4-3.2-1.2V26.3z"/>
	<path class="st1" d="M387.6,14.7h7v1.2H389V21h5.3v1.2H389v5.7h5.6v1.2h-7V14.7z"/>
	<path class="st1" d="M398.3,14.7l4.3,9.6l1.1,2.5c-0.1-2.6-0.1-3.9-0.1-4v-8.1h1.2v14.4h-1.4l-4.1-9.2c-0.1-0.3-0.3-0.8-0.7-1.7
		l-0.5-1.3c0,0.3,0,0.5,0,0.5l0.1,1.1l0,1.6l0,0.6v8.3h-1.2V14.7H398.3z M398.1,13.3c0-1.5,0.6-2.2,1.6-2.2c0.5,0,1,0.3,1.4,0.8
		c0.3,0.4,0.6,0.5,0.8,0.5c0.4,0,0.6-0.4,0.6-1.2h1c0,1.5-0.5,2.3-1.6,2.3c-0.5,0-1-0.3-1.5-0.8c-0.3-0.4-0.6-0.5-0.8-0.5
		c-0.4,0-0.6,0.4-0.6,1.2H398.1z"/>
	<path class="st1" d="M411.5,14.5c1.4,0,2.5,0.7,3.4,2c0.9,1.3,1.3,3.2,1.3,5.6c0,2.2-0.4,3.9-1.3,5.2c-0.9,1.3-2,2-3.4,2
		c-1.4,0-2.5-0.6-3.4-1.9c-0.9-1.3-1.3-3.1-1.3-5.3c0-2.3,0.4-4.2,1.3-5.5C408.9,15.2,410,14.5,411.5,14.5z M411.6,15.8
		c-1.2,0-2,0.6-2.5,1.8c-0.5,1.2-0.8,2.7-0.8,4.6c0,1.8,0.3,3.2,0.9,4.3c0.6,1.1,1.4,1.6,2.4,1.6c1,0,1.8-0.5,2.4-1.6
		c0.6-1.1,0.9-2.6,0.9-4.5c0-2.1-0.3-3.6-0.9-4.6C413.2,16.3,412.4,15.8,411.6,15.8z"/>
	<path class="st1" d="M418,31.8h-0.7c0.4-0.9,0.6-1.7,0.7-2.5c-0.3-0.1-0.5-0.3-0.6-0.5c-0.1-0.2-0.2-0.4-0.2-0.7
		c0-0.4,0.1-0.8,0.3-1.1c0.2-0.3,0.4-0.4,0.7-0.4c0.3,0,0.5,0.1,0.7,0.4c0.2,0.3,0.3,0.7,0.3,1.1c0,0.6-0.1,1.1-0.3,1.7
		C418.7,30.5,418.4,31.1,418,31.8z"/>
	<path class="st1" d="M433.1,28.4c-1,0.6-1.9,0.9-2.7,0.9c-1,0-1.8-0.3-2.6-1c-0.7-0.7-1.3-1.6-1.6-2.7c-0.3-1.2-0.5-2.4-0.5-3.7
		c0-2.2,0.4-4,1.3-5.3c0.9-1.4,2-2.1,3.5-2.1c0.9,0,1.7,0.3,2.6,0.9V17c-0.9-0.8-1.8-1.3-2.5-1.3c-1,0-1.9,0.6-2.5,1.7
		c-0.6,1.1-0.9,2.7-0.9,4.7c0,1.7,0.3,3.1,0.9,4.2c0.6,1.1,1.4,1.7,2.4,1.7c0.8,0,1.7-0.4,2.6-1.3V28.4z"/>
	<path class="st1" d="M439,14.5c1.4,0,2.5,0.7,3.4,2c0.9,1.3,1.3,3.2,1.3,5.6c0,2.2-0.4,3.9-1.3,5.2c-0.9,1.3-2,2-3.4,2
		c-1.4,0-2.5-0.6-3.4-1.9c-0.9-1.3-1.3-3.1-1.3-5.3c0-2.3,0.4-4.2,1.3-5.5C436.4,15.2,437.6,14.5,439,14.5z M439.1,15.8
		c-1.2,0-2,0.6-2.5,1.8c-0.5,1.2-0.8,2.7-0.8,4.6c0,1.8,0.3,3.2,0.9,4.3c0.6,1.1,1.4,1.6,2.4,1.6c1,0,1.8-0.5,2.4-1.6
		c0.6-1.1,0.9-2.6,0.9-4.5c0-2.1-0.3-3.6-0.9-4.6C440.7,16.3,440,15.8,439.1,15.8z"/>
	<path class="st1" d="M447.1,14.7l4.3,9.6l1.1,2.5c-0.1-2.6-0.1-3.9-0.1-4v-8.1h1.2v14.4h-1.4l-4.1-9.2c-0.1-0.3-0.3-0.8-0.7-1.7
		l-0.5-1.3c0,0.3,0,0.5,0,0.5l0.1,1.1l0,1.6l0,0.6v8.3h-1.2V14.7H447.1z"/>
	<path class="st1" d="M455.5,26.3c0.7,0.6,1.3,1,1.8,1.2c0.5,0.2,0.9,0.3,1.4,0.3c0.7,0,1.4-0.3,2-0.8c0.6-0.5,0.9-1.2,0.9-2.1
		c0-0.6-0.2-1.2-0.6-1.6c-0.4-0.4-1.1-0.8-2.2-1.3c-2.2-0.8-3.3-2.1-3.3-3.7c0-1.1,0.4-2,1.2-2.8c0.8-0.8,1.7-1.1,2.8-1.1
		c0.9,0,1.8,0.3,2.7,1v1.9c-0.6-0.6-1.1-0.9-1.5-1.1c-0.4-0.2-0.8-0.3-1.2-0.3c-0.7,0-1.3,0.2-1.8,0.7c-0.5,0.5-0.7,1.1-0.7,1.7
		c0,0.7,0.2,1.2,0.6,1.6c0.4,0.4,1.2,0.8,2.3,1.3c0.7,0.3,1.2,0.6,1.6,0.8c0.4,0.3,0.8,0.7,1,1.2c0.3,0.5,0.4,1.1,0.4,1.8
		c0,1.2-0.4,2.3-1.3,3.1c-0.9,0.8-1.9,1.3-3,1.3c-1,0-2.1-0.4-3.2-1.2V26.3z"/>
	<path class="st1" d="M463.9,14.7h8.1v1.2h-3.4v13.1h-1.4V15.9h-3.3V14.7z"/>
	<path class="st1" d="M473.6,14.7h3.5c1.2,0,2.3,0.3,3,0.9c0.8,0.6,1.1,1.4,1.1,2.6c0,0.9-0.2,1.7-0.7,2.3c-0.5,0.6-1.2,1.1-2.2,1.5
		c0.7,0.2,1.2,0.5,1.5,0.9c0.3,0.4,0.6,1.1,0.8,1.9l0.8,4.3h-1.5l-0.6-3.5c-0.2-1.1-0.5-1.9-0.9-2.4c-0.4-0.5-1.1-0.7-1.9-0.7H475
		v6.6h-1.4V14.7z M475,16v5.4h1.4c1,0,1.8-0.3,2.5-0.8c0.6-0.5,0.9-1.3,0.9-2.2c0-0.8-0.2-1.4-0.7-1.8c-0.4-0.4-1.1-0.6-2-0.6H475z"
		/>
	<path class="st1" d="M483,14.7h1.4v10.3c0,0.9,0.2,1.7,0.7,2.2c0.4,0.5,1,0.8,1.8,0.8c0.7,0,1.3-0.3,1.8-0.8
		c0.4-0.5,0.7-1.3,0.7-2.2V14.7h1.4v10.3c0,1.3-0.4,2.3-1.1,3.1c-0.7,0.8-1.7,1.2-2.8,1.2c-1.2,0-2.1-0.4-2.8-1.2
		c-0.7-0.8-1-1.9-1-3.3V14.7z"/>
	<path class="st1" d="M499.9,28.4c-1,0.6-1.9,0.9-2.7,0.9c-1,0-1.8-0.3-2.6-1c-0.7-0.7-1.3-1.6-1.6-2.7c-0.3-1.2-0.5-2.4-0.5-3.7
		c0-2.2,0.4-4,1.3-5.3c0.9-1.4,2-2.1,3.5-2.1c0.9,0,1.7,0.3,2.6,0.9V17c-0.9-0.8-1.8-1.3-2.5-1.3c-1,0-1.9,0.6-2.5,1.7
		c-0.6,1.1-0.9,2.7-0.9,4.7c0,1.7,0.3,3.1,0.9,4.2c0.6,1.1,1.4,1.7,2.4,1.7c0.8,0,1.7-0.4,2.6-1.3V28.4z"/>
	<path class="st1" d="M508.5,28.4c-1,0.6-1.9,0.9-2.7,0.9c-1,0-1.8-0.3-2.6-1c-0.7-0.7-1.3-1.6-1.6-2.7c-0.3-1.2-0.5-2.4-0.5-3.7
		c0-2.2,0.4-4,1.3-5.3c0.9-1.4,2-2.1,3.5-2.1c0.9,0,1.7,0.3,2.6,0.9V17c-0.9-0.8-1.8-1.3-2.5-1.3c-1,0-1.9,0.6-2.5,1.7
		c-0.6,1.1-0.9,2.7-0.9,4.7c0,1.7,0.3,3.1,0.9,4.2c0.6,1.1,1.4,1.7,2.4,1.7c0.8,0,1.7-0.4,2.6-1.3V28.4z"/>
	<path class="st1" d="M510.3,14.7h1.4v14.4h-1.4V14.7z"/>
	<path class="st1" d="M518.5,14.5c1.4,0,2.5,0.7,3.4,2c0.9,1.3,1.3,3.2,1.3,5.6c0,2.2-0.4,3.9-1.3,5.2c-0.9,1.3-2,2-3.4,2
		c-1.4,0-2.5-0.6-3.4-1.9c-0.9-1.3-1.3-3.1-1.3-5.3c0-2.3,0.4-4.2,1.3-5.5C515.9,15.2,517.1,14.5,518.5,14.5z M518.6,15.8
		c-1.2,0-2,0.6-2.5,1.8c-0.5,1.2-0.8,2.7-0.8,4.6c0,1.8,0.3,3.2,0.9,4.3c0.6,1.1,1.4,1.6,2.4,1.6c1,0,1.8-0.5,2.4-1.6
		c0.6-1.1,0.9-2.6,0.9-4.5c0-2.1-0.3-3.6-0.9-4.6C520.2,16.3,519.5,15.8,518.6,15.8z"/>
	<path class="st1" d="M526.6,14.7l4.3,9.6l1.1,2.5c-0.1-2.6-0.1-3.9-0.1-4v-8.1h1.2v14.4h-1.4l-4.1-9.2c-0.1-0.3-0.3-0.8-0.7-1.7
		l-0.5-1.3c0,0.3,0,0.5,0,0.5l0.1,1.1l0,1.6l0,0.6v8.3h-1.2V14.7H526.6z"/>
	<path class="st1" d="M536.6,31.8h-0.7c0.4-0.9,0.6-1.7,0.7-2.5c-0.3-0.1-0.5-0.3-0.6-0.5c-0.1-0.2-0.2-0.4-0.2-0.7
		c0-0.4,0.1-0.8,0.3-1.1c0.2-0.3,0.4-0.4,0.7-0.4c0.3,0,0.5,0.1,0.7,0.4c0.2,0.3,0.3,0.7,0.3,1.1c0,0.6-0.1,1.1-0.3,1.7
		C537.3,30.5,537,31.1,536.6,31.8z"/>
	<path class="st1" d="M302.2,40h1.4v14.4h-1.4V40z"/>
	<path class="st1" d="M307.7,40l4.3,9.6l1.1,2.5c-0.1-2.6-0.1-3.9-0.1-4V40h1.2v14.4h-1.4l-4.1-9.2c-0.1-0.3-0.3-0.8-0.7-1.7
		l-0.5-1.3c0,0.3,0,0.5,0,0.5l0.1,1.1l0,1.6l0,0.6v8.3h-1.2V40H307.7z"/>
	<path class="st1" d="M315.8,40h8.1v1.2h-3.4v13.1h-1.4V41.3h-3.3V40z"/>
	<path class="st1" d="M325.4,40h7v1.2h-5.6v5.1h5.3v1.2h-5.3v5.7h5.6v1.2h-7V40z"/>
	<path class="st1" d="M334.7,40h3.5c1.2,0,2.3,0.3,3,0.9c0.8,0.6,1.1,1.4,1.1,2.6c0,0.9-0.2,1.7-0.7,2.3c-0.5,0.6-1.2,1.1-2.2,1.5
		c0.7,0.2,1.2,0.5,1.5,0.9c0.3,0.4,0.6,1.1,0.8,1.9l0.8,4.3H341l-0.6-3.5c-0.2-1.1-0.5-1.9-0.9-2.4c-0.4-0.5-1.1-0.7-1.9-0.7h-1.6
		v6.6h-1.4V40z M336.1,41.3v5.4h1.4c1,0,1.8-0.3,2.5-0.8c0.6-0.5,0.9-1.3,0.9-2.2c0-0.8-0.2-1.4-0.7-1.8c-0.4-0.4-1.1-0.6-2-0.6
		H336.1z"/>
	<path class="st1" d="M344.3,40h1.4v14.4h-1.4V40z"/>
	<path class="st1" d="M352.6,39.8c1.4,0,2.5,0.7,3.4,2c0.9,1.3,1.3,3.2,1.3,5.6c0,2.2-0.4,3.9-1.3,5.2c-0.9,1.3-2,2-3.4,2
		c-1.4,0-2.5-0.6-3.4-1.9c-0.9-1.3-1.3-3.1-1.3-5.3c0-2.3,0.4-4.2,1.3-5.5C349.9,40.5,351.1,39.8,352.6,39.8z M352.6,41.1
		c-1.2,0-2,0.6-2.5,1.8c-0.5,1.2-0.8,2.7-0.8,4.6c0,1.8,0.3,3.2,0.9,4.3c0.6,1.1,1.4,1.6,2.4,1.6c1,0,1.8-0.5,2.4-1.6
		c0.6-1.1,0.9-2.6,0.9-4.5c0-2.1-0.3-3.6-0.9-4.6S353.5,41.1,352.6,41.1z"/>
	<path class="st1" d="M359.3,40h3.5c1.2,0,2.3,0.3,3,0.9c0.8,0.6,1.1,1.4,1.1,2.6c0,0.9-0.2,1.7-0.7,2.3c-0.5,0.6-1.2,1.1-2.2,1.5
		c0.7,0.2,1.2,0.5,1.5,0.9c0.3,0.4,0.6,1.1,0.8,1.9l0.8,4.3h-1.5l-0.6-3.5c-0.2-1.1-0.5-1.9-0.9-2.4c-0.4-0.5-1.1-0.7-1.9-0.7h-1.6
		v6.6h-1.4V40z M360.7,41.3v5.4h1.4c1,0,1.8-0.3,2.5-0.8s0.9-1.3,0.9-2.2c0-0.8-0.2-1.4-0.7-1.8c-0.4-0.4-1.1-0.6-2-0.6H360.7z"/>
	<path class="st1" d="M368.9,40h7v1.2h-5.6v5.1h5.3v1.2h-5.3v5.7h5.6v1.2h-7V40z"/>
	<path class="st1" d="M377.4,51.6c0.7,0.6,1.3,1,1.8,1.2c0.5,0.2,0.9,0.3,1.4,0.3c0.7,0,1.4-0.3,2-0.8c0.6-0.5,0.9-1.2,0.9-2.1
		c0-0.6-0.2-1.2-0.6-1.6c-0.4-0.4-1.1-0.8-2.2-1.3c-2.2-0.8-3.3-2.1-3.3-3.7c0-1.1,0.4-2,1.2-2.8c0.8-0.8,1.7-1.1,2.8-1.1
		c0.9,0,1.8,0.3,2.7,1v1.9c-0.6-0.6-1.1-0.9-1.5-1.1c-0.4-0.2-0.8-0.3-1.2-0.3c-0.7,0-1.3,0.2-1.8,0.7c-0.5,0.5-0.7,1.1-0.7,1.7
		c0,0.7,0.2,1.2,0.6,1.6c0.4,0.4,1.2,0.8,2.3,1.3c0.7,0.3,1.2,0.6,1.6,0.8c0.4,0.3,0.8,0.7,1,1.2c0.3,0.5,0.4,1.1,0.4,1.8
		c0,1.2-0.4,2.3-1.3,3.1c-0.9,0.8-1.9,1.3-3,1.3c-1,0-2.1-0.4-3.2-1.2V51.6z"/>
	<path class="st1" d="M391.7,40h7v1.2h-5.6v5.1h5.3v1.2h-5.3v5.7h5.6v1.2h-7V40z"/>
	<path class="st1" d="M405.8,40h1.4v14.4h-1.4V40z"/>
	<path class="st1" d="M411.4,40l4.3,9.6l1.1,2.5c-0.1-2.6-0.1-3.9-0.1-4V40h1.2v14.4h-1.4l-4.1-9.2c-0.1-0.3-0.3-0.8-0.7-1.7
		l-0.5-1.3c0,0.3,0,0.5,0,0.5l0.1,1.1l0,1.6l0,0.6v8.3h-1.2V40H411.4z"/>
	<path class="st1" d="M422.3,40l3.1,7.9l3.1-7.9h1.7v14.4h-1.3v-9.2l0-2.4c0-0.3,0-0.7,0-1.3c-0.2,0.9-0.6,1.9-1,3l-2.5,6.5
		l-2.1-5.5c-0.4-1.1-0.9-2.4-1.5-3.9c0.1,3.1,0.1,4.8,0.1,5.2v7.6h-1.3V40H422.3z"/>
	<path class="st1" d="M436.9,39.8c1.4,0,2.5,0.7,3.4,2c0.9,1.3,1.3,3.2,1.3,5.6c0,2.2-0.4,3.9-1.3,5.2c-0.9,1.3-2,2-3.4,2
		c-1.4,0-2.5-0.6-3.4-1.9c-0.9-1.3-1.3-3.1-1.3-5.3c0-2.3,0.4-4.2,1.3-5.5C434.3,40.5,435.4,39.8,436.9,39.8z M437,41.1
		c-1.2,0-2,0.6-2.5,1.8c-0.5,1.2-0.8,2.7-0.8,4.6c0,1.8,0.3,3.2,0.9,4.3c0.6,1.1,1.4,1.6,2.4,1.6c1,0,1.8-0.5,2.4-1.6
		c0.6-1.1,0.9-2.6,0.9-4.5c0-2.1-0.3-3.6-0.9-4.6C438.6,41.6,437.8,41.1,437,41.1z"/>
	<path class="st1" d="M443.5,40h3.8c1.1,0,2,0.3,2.7,0.8c0.7,0.6,1,1.4,1,2.5c0,0.8-0.2,1.5-0.6,2c-0.4,0.6-1,1-1.8,1.3
		c1.1,0.1,2,0.4,2.5,1c0.6,0.6,0.8,1.4,0.8,2.5c0,0.8-0.2,1.5-0.5,2.1c-0.3,0.6-0.8,1.1-1.5,1.5c-0.7,0.4-1.5,0.6-2.4,0.6h-4.1V40z
		 M444.9,41.3v5h1.6c1,0,1.7-0.2,2.3-0.7c0.6-0.5,0.8-1.2,0.8-2.1c0-0.7-0.2-1.3-0.7-1.7c-0.4-0.4-1.1-0.6-2-0.6H444.9z M444.9,47.5
		v5.7h2.3c1.1,0,1.9-0.3,2.5-0.8c0.6-0.5,0.9-1.3,0.9-2.2s-0.3-1.6-0.9-2c-0.6-0.4-1.6-0.6-2.9-0.6H444.9z"/>
	<path class="st1" d="M453.9,40h1.4v14.4h-1.4V40z"/>
	<path class="st1" d="M458.1,40h1.4v13.1h5.3v1.2h-6.7V40z"/>
	<path class="st1" d="M466.5,40h1.4v14.4h-1.4V40z"/>
	<path class="st1" d="M473.2,40h1.4l4,14.4H477l-1.2-5h-3.8l-1.2,5h-1.5L473.2,40z M473.8,41.8l-1.6,6.5h3.2L473.8,41.8z"/>
	<path class="st1" d="M479.9,40h3.5c1.2,0,2.3,0.3,3,0.9c0.8,0.6,1.1,1.4,1.1,2.6c0,0.9-0.2,1.7-0.7,2.3c-0.5,0.6-1.2,1.1-2.2,1.5
		c0.7,0.2,1.2,0.5,1.5,0.9c0.3,0.4,0.6,1.1,0.8,1.9l0.8,4.3h-1.5l-0.6-3.5c-0.2-1.1-0.5-1.9-0.9-2.4c-0.4-0.5-1.1-0.7-1.9-0.7h-1.6
		v6.6h-1.4V40z M481.2,41.3v5.4h1.4c1,0,1.8-0.3,2.5-0.8s0.9-1.3,0.9-2.2c0-0.8-0.2-1.4-0.7-1.8c-0.4-0.4-1.1-0.6-2-0.6H481.2z"/>
	<path class="st1" d="M489.5,40h1.4v14.4h-1.4V40z"/>
	<path class="st1" d="M497.8,39.8c1.4,0,2.5,0.7,3.4,2c0.9,1.3,1.3,3.2,1.3,5.6c0,2.2-0.4,3.9-1.3,5.2c-0.9,1.3-2,2-3.4,2
		c-1.4,0-2.5-0.6-3.4-1.9c-0.9-1.3-1.3-3.1-1.3-5.3c0-2.3,0.4-4.2,1.3-5.5C495.1,40.5,496.3,39.8,497.8,39.8z M497.8,41.1
		c-1.2,0-2,0.6-2.5,1.8c-0.5,1.2-0.8,2.7-0.8,4.6c0,1.8,0.3,3.2,0.9,4.3c0.6,1.1,1.4,1.6,2.4,1.6c1,0,1.8-0.5,2.4-1.6
		c0.6-1.1,0.9-2.6,0.9-4.5c0-2.1-0.3-3.6-0.9-4.6C499.4,41.6,498.7,41.1,497.8,41.1z"/>
</g>
<g>
	<g>
		<path class="st2" d="M265.1,130.3h-5c-0.2,0-0.4-0.2-0.4-0.4c0-0.2,0.2-0.4,0.4-0.4h5c0.2,0,0.4,0.2,0.4,0.4
			C265.5,130.2,265.3,130.3,265.1,130.3z"/>
	</g>
	<g>
		<g>
			<g>
				<g>
					<path class="st2" d="M300.4,99.5h-27.1c-0.2,0-0.4-0.2-0.4-0.4V88.2c0-0.2-0.2-0.5-0.5-0.5h-2.9c-0.1,0-0.2,0-0.3-0.1
						c-0.1-0.1-0.1-0.2-0.1-0.3c0-0.3,0.1-0.6,0.1-0.9l2.4-15.4c0.2-1,1.2-1.9,2.2-1.9h25.7c1.1,0,2.1,0.9,2.2,1.9l2.4,15.4
						c0,0.2,0.1,0.5,0.1,0.8c0,0,0,0.1,0,0.1c0,0.2-0.2,0.4-0.4,0.4c0,0,0,0,0,0h-2.8c-0.2,0-0.5,0.2-0.5,0.5v10.9
						C300.7,99.3,300.6,99.5,300.4,99.5z M273.6,98.7H300V88.2c0-0.7,0.5-1.2,1.2-1.2h2.3c0-0.2,0-0.3-0.1-0.4l-2.4-15.4
						c-0.1-0.7-0.8-1.3-1.5-1.3h-25.7c-0.7,0-1.4,0.6-1.5,1.3L270,86.5c0,0.1,0,0.3-0.1,0.4h2.5c0.7,0,1.2,0.5,1.2,1.2V98.7z"/>
				</g>
			</g>
			<g>
				<g>
					<path class="st2" d="M308.1,109.8h-42.6c-0.2,0-0.4-0.2-0.4-0.4V88.2c0-0.7,0.5-1.2,1.2-1.2h6.1c0.7,0,1.2,0.5,1.2,1.2v10.5
						H300V88.2c0-0.7,0.5-1.2,1.2-1.2h6.1c0.7,0,1.2,0.5,1.2,1.2v21.3C308.5,109.7,308.3,109.8,308.1,109.8z M265.9,109.1h41.8V88.2
						c0-0.2-0.2-0.5-0.5-0.5h-6.1c-0.2,0-0.5,0.2-0.5,0.5v10.9c0,0.2-0.2,0.4-0.4,0.4h-27.1c-0.2,0-0.4-0.2-0.4-0.4V88.2
						c0-0.2-0.2-0.5-0.5-0.5h-6.1c-0.2,0-0.5,0.2-0.5,0.5V109.1z"/>
				</g>
			</g>
			<g>
				<g>
					<path class="st2" d="M272,134.5h-1.8c-0.1,0-0.2,0-0.3-0.1c-0.1-0.1-0.1-0.2-0.1-0.3l0.7-9l2.1-15.7c0-0.2,0.2-0.3,0.4-0.3h2.3
						c0.1,0,0.2,0,0.3,0.1c0.1,0.1,0.1,0.2,0.1,0.3l-3.3,24.7C272.3,134.4,272.2,134.5,272,134.5z M270.6,133.8h1.1l3.2-23.9h-1.6
						l-2,15.3c0,0,0,0,0,0L270.6,133.8z"/>
				</g>
			</g>
			<g>
				<g>
					<path class="st2" d="M269.4,136.4h-2c-0.1,0-0.2,0-0.3-0.1c-0.1-0.1-0.1-0.2-0.1-0.3l2-26.6c0-0.2,0.2-0.3,0.4-0.3h3.5
						c0.1,0,0.2,0,0.3,0.1c0.1,0.1,0.1,0.2,0.1,0.3l-2.1,15.7c0,0,0,0,0,0l-1.4,10.9C269.7,136.3,269.6,136.4,269.4,136.4z
						 M267.8,135.7h1.2l1.4-10.5c0,0,0,0,0,0l2-15.2h-2.7L267.8,135.7z"/>
				</g>
			</g>
			<g>
				<g>
					<path class="st2" d="M303.8,134.5C303.8,134.5,303.8,134.5,303.8,134.5H302c-0.2,0-0.3-0.1-0.4-0.3l-3.3-24.7
						c0-0.1,0-0.2,0.1-0.3c0.1-0.1,0.2-0.1,0.3-0.1h2.3c0.2,0,0.3,0.1,0.4,0.3l2.1,15.7l0.7,8.9c0,0,0,0.1,0,0.1
						C304.2,134.3,304,134.5,303.8,134.5z M302.3,133.8h1.1l-0.6-8.6l-2-15.3h-1.6L302.3,133.8z"/>
				</g>
			</g>
			<g>
				<g>
					<path class="st2" d="M306.5,136.4C306.5,136.4,306.5,136.4,306.5,136.4h-2c-0.2,0-0.3-0.1-0.4-0.3l-3.5-26.6
						c0-0.1,0-0.2,0.1-0.3c0.1-0.1,0.2-0.1,0.3-0.1h3.5c0.2,0,0.4,0.2,0.4,0.3l2,26.5c0,0,0,0.1,0,0.1
						C306.9,136.3,306.8,136.4,306.5,136.4z M304.9,135.7h1.2l-1.9-25.8h-2.7L304.9,135.7z"/>
				</g>
			</g>
		</g>
		<g>
			<g>
				<g>
					<path class="st2" d="M525.8,134C525.8,134,525.8,134,525.8,134h-1.7c-0.2,0-0.3-0.1-0.4-0.3l-4-29.6c0-0.1,0-0.2,0.1-0.3
						l10.3-14.3l-4.4-19.6l-1.5,0.4c-0.1,0-0.2,0-0.3,0l-2-1.2c-0.1-0.1-0.2-0.2-0.2-0.4c0-0.1,0.1-0.3,0.3-0.3l5.1-1.5
						c0.1,0,0.2,0,0.3,0c0.1,0.1,0.2,0.1,0.2,0.2l5.1,22.7c0,0.1,0,0.2-0.1,0.3l-10.3,14.4l3.9,28.9c0,0,0,0.1,0,0.1
						C526.2,133.9,526,134,525.8,134z M524.4,133.3h0.9l-3.9-28.7c0-0.1,0-0.2,0.1-0.3L531.9,90l-5-22.1l-3.8,1.1l1.1,0.6l1.7-0.5
						c0.1,0,0.2,0,0.3,0c0.1,0.1,0.2,0.1,0.2,0.2l4.5,20.2c0,0.1,0,0.2-0.1,0.3l-10.3,14.3L524.4,133.3z"/>
				</g>
			</g>
		</g>
		<g>
			<g>
				<path class="st2" d="M517.2,88.3c-0.1,0-0.1,0-0.2-0.1l-8.5-5c-0.1-0.1-0.1-0.1-0.2-0.2c0-0.1,0-0.2,0-0.3l8.3-14.1
					c0.1-0.1,0.1-0.1,0.2-0.2c0.1,0,0.2,0,0.3,0l8.5,5c0.2,0.1,0.2,0.3,0.1,0.5l-8.3,14.1C517.5,88.2,517.4,88.2,517.2,88.3
					C517.3,88.3,517.2,88.3,517.2,88.3z M509.3,82.8l7.8,4.6l8-13.4l-7.8-4.6L509.3,82.8z"/>
			</g>
		</g>
		<g>
			<g>
				<path class="st2" d="M537,136.8h-24.6c-0.2,0-0.4-0.2-0.4-0.4v-1.2c0-0.2,0.1-0.3,0.3-0.4l11-1.5c0,0,0,0,0.1,0h2.8
					c0,0,0,0,0.1,0l10.8,1.6c0.2,0,0.3,0.2,0.3,0.4v1.2C537.4,136.6,537.2,136.8,537,136.8z M512.8,136h23.9v-0.5l-10.5-1.6h-2.7
					l-10.6,1.5V136z"/>
			</g>
		</g>
		<g>
			<g>
				<g>
					<path class="st2" d="M446.3,116.8H342.5c-0.2,0-0.4-0.2-0.4-0.4v-14.6c0-0.2,0.2-0.4,0.4-0.4h103.7c0.2,0,0.4,0.2,0.4,0.4v14.6
						C446.7,116.7,446.5,116.8,446.3,116.8z M342.9,116.1h103v-13.8h-103V116.1z"/>
				</g>
			</g>
			<g>
				<g>
					<path class="st2" d="M352.3,135h-1.8c-0.1,0-0.2,0-0.3-0.1c-0.1-0.1-0.1-0.2-0.1-0.3l1-6c0,0,0,0,0-0.1l2.9-8.3
						c0.1-0.2,0.2-0.3,0.4-0.3h2.9c0.1,0,0.2,0.1,0.3,0.2c0.1,0.1,0.1,0.2,0,0.3l-5.1,14.2C352.6,134.9,352.4,135,352.3,135z
						 M350.9,134.2h1.1l4.8-13.5h-2.1l-2.8,8L350.9,134.2z"/>
				</g>
			</g>
			<g>
				<g>
					<path class="st2" d="M348.7,136.7h-2c-0.1,0-0.2,0-0.3-0.1c-0.1-0.1-0.1-0.2-0.1-0.3l2.7-15.9c0-0.2,0.2-0.3,0.4-0.3h5
						c0.1,0,0.2,0.1,0.3,0.2c0.1,0.1,0.1,0.2,0,0.3l-5.7,15.9C349,136.6,348.9,136.7,348.7,136.7z M347.2,135.9h1.3l5.4-15.2h-4.1
						L347.2,135.9z"/>
				</g>
			</g>
			<g>
				<g>
					<path class="st2" d="M473.9,135C473.9,135,473.9,135,473.9,135h-1.8c-0.2,0-0.3-0.1-0.4-0.3l-5.1-14.2c0-0.1,0-0.2,0-0.3
						c0.1-0.1,0.2-0.2,0.3-0.2h2.9c0.2,0,0.3,0.1,0.4,0.3l2.9,8.3c0,0,0,0,0,0.1l1,5.9c0,0,0,0.1,0,0.1
						C474.3,134.8,474.1,135,473.9,135z M472.4,134.2h1.1l-0.9-5.5l-2.8-8h-2.1L472.4,134.2z"/>
				</g>
			</g>
			<g>
				<g>
					<path class="st2" d="M477.7,136.7C477.7,136.7,477.6,136.7,477.7,136.7h-2c-0.2,0-0.3-0.1-0.4-0.3l-5.7-15.9c0-0.1,0-0.2,0-0.3
						c0.1-0.1,0.2-0.2,0.3-0.2h5c0.2,0,0.3,0.1,0.4,0.3l2.7,15.9c0,0,0,0.1,0,0.1C478,136.5,477.9,136.7,477.7,136.7z M475.9,135.9
						h1.3l-2.6-15.2h-4.1L475.9,135.9z"/>
				</g>
			</g>
			<g>
				<g>
					<g>
						<path class="st2" d="M473.2,116.8h-1.5c-0.2,0-0.4-0.2-0.4-0.4v-7.7c0-0.2,0.2-0.4,0.4-0.4h1.5c0.2,0,0.4,0.2,0.4,0.4v7.7
							C473.5,116.6,473.4,116.8,473.2,116.8z M472.1,116h0.7v-7h-0.7V116z"/>
					</g>
				</g>
				<g>
					<g>
						<path class="st2" d="M468.7,116.8h-1.5c-0.2,0-0.4-0.2-0.4-0.4v-7.7c0-0.2,0.2-0.4,0.4-0.4h1.5c0.2,0,0.4,0.2,0.4,0.4v7.7
							C469,116.6,468.9,116.8,468.7,116.8z M467.6,116h0.7v-7h-0.7V116z"/>
					</g>
				</g>
				<g>
					<g>
						<path class="st2" d="M463.4,116.8c0,0-0.1,0-0.1,0l-1.4-0.5c-0.1,0-0.2-0.1-0.2-0.2c0-0.1-0.1-0.2,0-0.3l2.5-7.3
							c0.1-0.2,0.3-0.3,0.5-0.2l1.4,0.5c0.1,0,0.2,0.1,0.2,0.2c0,0.1,0.1,0.2,0,0.3l-2.5,7.3C463.7,116.7,463.6,116.8,463.4,116.8z
							 M462.5,115.7l0.7,0.2l2.3-6.6l-0.7-0.2L462.5,115.7z"/>
					</g>
				</g>
				<g>
					<g>
						<path class="st2" d="M471.7,116.8h-1.2c-0.2,0-0.4-0.2-0.4-0.4v-9.2c0-0.2,0.2-0.4,0.4-0.4h1.2c0.2,0,0.4,0.2,0.4,0.4v9.2
							C472.1,116.6,471.9,116.8,471.7,116.8z M470.9,116h0.4v-8.5h-0.4V116z"/>
					</g>
				</g>
				<g>
					<g>
						<path class="st2" d="M466,116.8C466,116.8,466,116.7,466,116.8l-1.2-0.2c-0.2,0-0.3-0.2-0.3-0.4l1.3-9.1
							c0-0.1,0.1-0.2,0.1-0.2s0.2-0.1,0.3-0.1l1.2,0.2c0.2,0,0.3,0.2,0.3,0.4l-1.3,9.1c0,0.1-0.1,0.2-0.1,0.2
							C466.2,116.7,466.1,116.8,466,116.8z M465.3,115.9l0.4,0.1l1.2-8.4l-0.4-0.1L465.3,115.9z"/>
					</g>
				</g>
				<g>
					<g>
						<path class="st2" d="M470.5,116.8h-1.9c-0.2,0-0.4-0.2-0.4-0.4v-6.6c0-0.2,0.2-0.4,0.4-0.4h1.9c0.2,0,0.4,0.2,0.4,0.4v6.6
							C470.9,116.6,470.7,116.8,470.5,116.8z M469,116h1.1v-5.8H469V116z"/>
					</g>
				</g>
			</g>
			<g>
				<g>
					<g>
						<path class="st2" d="M358,102.2c-1.8,0-3.6-0.6-5-1.8c-0.7-0.6-1.3-1.3-1.7-2c-0.1-0.1-0.1-0.3-0.2-0.4
							c-0.7-1.5-0.9-3.3-0.4-5.1c0.4-1.3,1.2-2.5,2.2-3.4c0.1-0.2,0.2-0.3,0.4-0.4c0.1,0,0.2-0.1,0.2-0.1c0.5-0.4,1-0.7,1.6-0.9
							c1.1-0.5,2.2-0.7,3.4-0.7c1.6-0.2,3.3,0.4,4.7,1.5c1.1,1,1.9,2.2,2.3,3.6c0,0.1,0.1,0.1,0.1,0.2c0.1,0.3,0.1,0.6,0.1,1
							c0,0,0,0.1,0,0.1c0.1,2.1-0.4,3.8-1.4,5.2c-0.1,0.3-0.3,0.7-0.7,0.9c-0.2,0.2-0.4,0.3-0.6,0.3c-0.6,0.5-1.4,1-2.3,1.3
							C360.1,102,359.1,102.2,358,102.2z M356.8,100.8c0,0,0,0.1,0,0.1c0.1,0.2,0.5,0.4,0.8,0.4C357.3,101.2,357,101,356.8,100.8z
							 M355.3,100.9c0.3,0.1,0.6,0.2,0.8,0.3c-0.1-0.2-0.1-0.5,0-0.9c0,0,0,0-0.1,0C355.8,100.5,355.6,100.7,355.3,100.9z
							 M359.1,101.1c0.4,0.1,0.7,0,1-0.2c0.3-0.3,0.5-1,0.4-2c-0.2-0.2-0.4-0.5-0.6-0.7c-0.3,0.2-0.7,0.3-1,0.5
							c0.2,0.3,0.3,0.7,0.4,1.1C359.4,100.4,359.3,100.8,359.1,101.1z M357.1,100.1c0.4,0.3,0.8,0.5,1.3,0.7
							c0.1-0.2,0.2-0.5,0.1-0.9c0-0.3-0.1-0.6-0.3-0.8C357.7,99.5,357.3,99.8,357.1,100.1z M361.3,99.7c0,0.4-0.1,0.8-0.2,1.1
							c0.4-0.2,0.7-0.4,1-0.6C361.8,100.1,361.6,99.9,361.3,99.7z M354.8,98.8c-0.4,0.3-0.6,0.7-0.6,1.1c0,0.4,0.2,0.4,0.2,0.4
							c0.3,0,0.7-0.2,1-0.6C355.3,99.4,355,99.1,354.8,98.8z M353,99.3c0.1,0.2,0.3,0.3,0.5,0.4c0-0.2,0-0.3,0.1-0.5
							C353.4,99.3,353.2,99.3,353,99.3z M356.5,99.6C356.5,99.6,356.5,99.6,356.5,99.6c0.3-0.3,0.7-0.7,1.3-1
							c-0.3-0.2-0.6-0.3-1-0.4C356.8,98.7,356.7,99.1,356.5,99.6z M361.2,98.6c0.5,0.5,1,0.9,1.5,1c0.1,0,0.2,0,0.2,0
							c0.3-0.3,0.6-0.6,0.9-0.9c0.2-0.5,0-1.1-0.3-1.7c-0.6,0.2-1.2,0.4-1.8,0.4c-0.2,0.1-0.4,0.2-0.6,0.3
							C361.2,98,361.2,98.3,361.2,98.6z M355.4,98.4c0.1,0.2,0.3,0.4,0.5,0.6c0.1-0.3,0.1-0.6,0.1-0.9
							C355.8,98.2,355.6,98.3,355.4,98.4z M352.1,98c0.2,0.3,0.5,0.5,0.8,0.5c0.5,0.1,1.1,0,1.6-0.3c-0.1-0.1-0.1-0.2-0.2-0.3
							c-0.9-0.1-1.8-0.2-2.4-0.6c0,0,0,0-0.1,0C351.8,97.5,351.9,97.7,352.1,98z M357.4,97.6c0.4,0.1,0.8,0.3,1.1,0.6
							c0.3-0.2,0.7-0.4,1-0.5c-0.1-0.1-0.1-0.2-0.2-0.3C358.6,97.4,358,97.4,357.4,97.6z M364.3,96.6c0.1,0.3,0.3,0.6,0.3,0.9
							c0.2-0.5,0.4-1,0.5-1.6C364.9,96.1,364.6,96.4,364.3,96.6z M354.6,97.1c0.1,0,0.1,0,0.2,0c0.1,0,0.2,0,0.3,0
							c0.1-0.3,0.2-0.6,0.3-1c-0.2-0.5-0.5-0.9-0.8-1.4c-0.7-0.2-1.4-0.4-2-0.6c0.2,0.3,0.4,0.5,0.5,0.7c0.4,0.6,0.8,1.3,1.1,1.9
							C354.5,96.9,354.6,97,354.6,97.1z M352.1,94.6c-0.3,0.3-0.6,0.7-0.6,1.1c0,0.4,0.2,0.7,0.6,0.9c0.4,0.3,0.9,0.4,1.5,0.5
							c-0.3-0.6-0.7-1.1-1.1-1.7C352.5,95.2,352.3,94.9,352.1,94.6z M356.3,96.1c0.1,0.3,0.2,0.6,0.3,0.9c0.7-0.2,1.4-0.3,2.1-0.4
							c-0.2-0.3-0.4-0.6-0.6-0.8c-0.1-0.2-0.3-0.4-0.6-0.6c0,0,0,0,0,0c-0.1,0-0.6,0-1.1-0.1C356.4,95.4,356.3,95.8,356.3,96.1z
							 M360.3,94.8c0.2,0.6,0.4,1.2,0.6,1.8c0.2,0,0.4,0,0.6,0c0.5-0.3,0.9-0.6,1.2-1c-0.2-0.2-0.4-0.5-0.6-0.7
							c-0.2-0.3-0.4-0.6-0.6-0.8c-0.1,0.1-0.2,0.2-0.3,0.3C361,94.5,360.6,94.7,360.3,94.8z M359.6,96.6c0.1,0,0.3,0,0.4,0
							c0,0,0,0,0.1,0c-0.2-0.6-0.3-1.1-0.5-1.6c-0.3,0.1-0.7,0.1-1,0.1c0.1,0.1,0.1,0.1,0.2,0.2c0.2,0.2,0.4,0.6,0.7,1
							C359.5,96.4,359.6,96.5,359.6,96.6z M363.7,95.6c0.1,0.1,0.2,0.2,0.2,0.4c0.8-0.5,1.3-1.4,1.3-2.3c0-0.3-0.1-0.7-0.2-1
							c-0.1-0.2-0.2-0.3-0.4-0.5c0,0.8-0.2,1.6-0.5,2.4C364,95,363.9,95.3,363.7,95.6z M362,93.4c0.2,0.3,0.5,0.7,0.7,1
							c0.1,0.2,0.3,0.3,0.4,0.5c0.1-0.2,0.2-0.4,0.3-0.6c0.3-0.8,0.5-1.6,0.4-2.4c-0.2,0-0.5,0-0.8,0.1c-0.5,0.1-0.7,0.5-1,1.1
							C362.1,93.2,362.1,93.3,362,93.4z M357,93.7c0.3,0.3,0.6,0.5,0.8,0.7c0.5,0,1,0,1.4-0.1c-0.2-0.4-0.4-0.9-0.7-1.3
							C358.2,93.5,357.7,93.7,357,93.7z M356.3,94.3c0.1,0,0.2,0,0.3,0c-0.1-0.1-0.2-0.2-0.3-0.3C356.3,94.2,356.3,94.3,356.3,94.3z
							 M351.5,93.3c-0.1,0.3-0.1,0.7-0.2,1c0.1-0.1,0.3-0.3,0.4-0.4C351.6,93.7,351.6,93.5,351.5,93.3z M355.2,94.1
							c0.1,0,0.2,0,0.4,0.1c0-0.1,0-0.3-0.1-0.4c-0.1,0-0.2,0-0.4,0c-0.1,0-0.1,0-0.2,0C355.1,93.9,355.1,94,355.2,94.1z
							 M359.2,92.6c0.3,0.5,0.6,1,0.8,1.5c0.3-0.1,0.6-0.3,0.8-0.4c0.1-0.1,0.2-0.2,0.3-0.3c-0.2-0.3-0.3-0.7-0.5-1.1
							C360.2,92.4,359.7,92.5,359.2,92.6z M353.9,93.8c0.1,0,0.2,0.1,0.3,0.1c0,0,0-0.1-0.1-0.1C354,93.8,354,93.8,353.9,93.8z
							 M352.2,92.9c0.1,0.1,0.3,0.3,0.5,0.4c0.3-0.1,0.7-0.2,1-0.2c-0.2-0.3-0.4-0.7-0.5-1c-0.2-0.1-0.4-0.1-0.6-0.1
							c-0.2,0-0.3,0.1-0.3,0.1c0,0-0.1,0.1-0.1,0.1c0,0.1,0,0.1,0,0.2C352.1,92.5,352.1,92.7,352.2,92.9z M356.1,93
							c0,0,0.1,0.1,0.1,0.1c0.1,0,0.2,0,0.2,0c0.6,0,1.1-0.1,1.5-0.4c0,0,0,0-0.1,0c-0.8-0.1-1.4-0.2-1.7-0.7
							c-0.3-0.4-0.3-0.9-0.2-1.7c0,0,0-0.1,0-0.1c-0.7-0.4-1.4-0.6-1.9-0.5c-0.1,0.1-0.3,0.2-0.4,0.3c-0.1,0.1-0.1,0.3-0.1,0.5
							c0.1,0,0.2,0,0.3,0.1C354.9,90.8,355.7,92,356.1,93z M354.5,93c0.1,0,0.2,0,0.4,0c-0.2-0.1-0.4-0.3-0.6-0.4
							C354.4,92.8,354.4,92.9,354.5,93z M361.4,91.9c0.1,0.2,0.2,0.4,0.2,0.6c0.3-0.5,0.6-1.1,1.4-1.3c0.3-0.1,0.6-0.1,0.8-0.1
							c-0.2-0.7-0.5-1.3-1.1-1.9c0.2,0.7,0,1.2-0.3,1.6C362.2,91.3,361.8,91.6,361.4,91.9z M353.8,91.5c0.3,0.1,0.6,0.3,0.9,0.5
							c-0.3-0.4-0.6-0.7-1-0.8C353.7,91.3,353.7,91.4,353.8,91.5z M356.6,90.6c-0.1,0.5,0,0.8,0.1,0.9c0.1,0.2,0.5,0.3,1.1,0.4
							c-0.3-0.4-0.6-0.7-0.9-1C356.8,90.8,356.7,90.7,356.6,90.6z M359,88c0.8,0.8,0.6,2.7,0.4,3.5c0,0.1-0.1,0.2-0.1,0.4
							c0.4-0.1,0.8-0.2,1.2-0.3c-0.1-0.4-0.2-0.9-0.2-1.3c0-0.6,0.1-1.4,0.4-1.9C360.1,88.1,359.6,88,359,88z M356.8,89.8
							c0.2,0.2,0.4,0.4,0.6,0.5c0.4,0.4,0.8,0.8,1.1,1.3c0-0.1,0.1-0.2,0.1-0.4c0.3-0.8,0.3-2.6-0.4-2.9c-0.2-0.1-0.4-0.1-0.5,0
							C357.3,88.6,357,89.2,356.8,89.8z M361.4,88.6c-0.2,0.1-0.4,0.8-0.4,1.5c0,0.3,0.1,0.7,0.2,1c0.3-0.2,0.5-0.4,0.7-0.6
							c0.3-0.4,0.3-0.9,0-1.4C361.5,88.6,361.4,88.6,361.4,88.6z M355.1,88.9c0.3,0.1,0.7,0.3,1,0.5c0.2-0.4,0.4-0.8,0.6-1.1
							c-0.4,0.1-0.8,0.2-1.1,0.4C355.5,88.7,355.3,88.8,355.1,88.9z"/>
					</g>
				</g>
				<g>
					<g>
						<path class="st2" d="M374,102.2c-0.6,0-1.2-0.1-1.8-0.2c-2.6-0.6-4.3-2.3-4.4-4.6c-0.1-2.6,0.7-4.5,2.6-6.1
							c0.7-0.6,1.6-0.9,2.5-1l0,0c2.8-0.4,5.3,0.6,6.6,2.5c0.5,0.8,0.8,1.6,0.9,2.6c0.2,0.4,0.1,0.9,0,1.4c0,0,0,0.1-0.1,0.1
							c-0.1,0.8-0.4,1.7-0.9,2.5c-0.6,1-1.4,1.7-2.5,2.1c-0.1,0.1-0.2,0.1-0.3,0.2c-0.3,0.1-0.5,0.2-0.7,0.2
							C375.3,102.1,374.6,102.2,374,102.2z M373.6,101.5c0.1,0,0.1,0,0.2,0l-0.1,0c0,0,0,0,0,0C373.7,101.4,373.6,101.4,373.6,101.5
							C373.6,101.5,373.6,101.5,373.6,101.5z M374.4,100.9c0,0.2,0,0.4,0,0.5c0.1,0,0.2,0,0.4,0
							C374.7,101.3,374.6,101.1,374.4,100.9C374.5,100.9,374.5,100.9,374.4,100.9z M375.1,100.4c0.1,0.3,0.3,0.6,0.4,0.7
							c0,0,0.2,0.1,0.3,0.1c0.2-0.1,0.5-0.1,0.7-0.2c0.6-0.4,0.6-0.8,0.6-1c0-0.3-0.2-0.7-0.5-1.1C376.1,99.5,375.6,100,375.1,100.4
							z M369.7,100c0.4,0.4,1,0.7,1.6,1c0,0,0-0.1,0-0.2c0,0-0.1,0-0.1,0c-0.3-0.1-0.6-0.4-0.7-1.1C370.2,99.9,369.9,99.9,369.7,100
							z M372.1,100.7C372.1,100.7,372.1,100.7,372.1,100.7c0.1,0.2,0.7,0.2,1.2,0c0.1,0,0.2-0.1,0.3-0.2c-0.1-0.3-0.2-0.5-0.4-0.7
							C372.9,100.2,372.5,100.5,372.1,100.7z M377.1,98.3c0.4,0.5,0.7,1,0.8,1.6c0,0.1,0,0.2,0,0.3c0.3-0.3,0.6-0.6,0.9-1
							c0.2-0.4,0.4-0.7,0.5-1.1c0,0,0,0-0.1,0c-0.5,0.2-1.2,0.2-1.8-0.1C377.3,98.1,377.2,98.2,377.1,98.3z M373.7,99.3
							c0.2,0.2,0.4,0.5,0.5,0.8c-0.1-0.5-0.1-1.1,0-1.4c0.1-0.5,0.2-0.9,0.5-1.3c-0.1-0.1-0.2-0.1-0.3-0.1c0,0,0,0-0.1,0
							C374.3,98,374.1,98.7,373.7,99.3z M371.2,99.2c0,0.1,0,0.2,0,0.3c0,0.3,0.1,0.5,0.2,0.6c0,0,0,0,0.1,0
							c0.1-0.2,0.2-0.3,0.3-0.5c0.5-0.6,0.9-0.7,1.3-0.6c0.3-0.5,0.5-1.1,0.5-1.7c-0.3,0.1-0.6,0.3-0.9,0.6
							c-0.2,0.2-0.5,0.4-0.8,0.5C371.7,98.7,371.4,99,371.2,99.2z M375.3,97.8c-0.2,0.3-0.3,0.6-0.4,1c0,0.3,0,0.5,0,0.8
							c0.4-0.4,0.8-0.8,1.2-1.2C375.9,98.1,375.6,97.9,375.3,97.8z M369.2,98.4c0,0.4,0,0.7,0.1,0.8c0.1,0.1,0.5,0,1.1-0.4
							c0,0,0,0,0,0c0,0,0,0,0-0.1C369.9,98.7,369.5,98.6,369.2,98.4z M369.4,97.5c0.2,0.3,0.6,0.5,1.2,0.5c0,0,0.1,0,0.1,0
							c0.2-0.4,0.4-0.8,0.7-1.2c0-0.5,0-1-0.1-1.6c0-0.1,0-0.1,0-0.2c0,0,0,0-0.1-0.1c-0.3,0.1-0.5,0.3-0.8,0.6
							C370,96,369.6,96.8,369.4,97.5z M375.8,97.2c0.3,0.2,0.5,0.4,0.8,0.6c0,0,0-0.1,0.1-0.1C376.4,97.6,376.1,97.3,375.8,97.2
							C375.9,97.1,375.8,97.1,375.8,97.2z M368.5,97.5c0,0.1,0,0.2,0,0.3c0,0,0-0.1,0-0.1C368.6,97.6,368.6,97.5,368.5,97.5z
							 M377.7,97.4c0.4,0.1,0.9,0.1,1.2,0c0.3-0.1,0.5-0.3,0.7-0.6c0.1-0.4,0.1-0.7,0.1-1.1c0-0.1,0-0.1-0.1-0.2
							c-0.3-0.5-1-0.9-1.8-1.1c0,0.4-0.1,0.7-0.3,1c0.3,0.2,0.5,0.5,0.5,0.8C378.1,96.6,378,96.9,377.7,97.4z M372.2,97
							c0,0.1,0,0.1,0,0.2c0.4-0.3,0.8-0.6,1.3-0.7c-0.1-0.2-0.1-0.4-0.2-0.6c-0.1,0-0.2,0-0.3,0C372.7,96.2,372.5,96.6,372.2,97
							C372.2,97,372.2,97,372.2,97z M376.5,96.6c0.2,0.2,0.4,0.4,0.6,0.5c0.1-0.3,0.2-0.5,0.2-0.8c0-0.1,0-0.2-0.2-0.3
							C376.9,96.2,376.7,96.4,376.5,96.6z M374.2,96.5c0.1,0,0.2,0,0.3,0.1c0.2,0,0.4,0.1,0.6,0.2c0.1-0.1,0.2-0.2,0.3-0.3
							c-0.2-0.3-0.2-0.6-0.2-0.8c0-0.1,0.1-0.2,0.1-0.2c-0.1,0.1-0.3,0.2-0.5,0.3c-0.3,0.1-0.6,0.2-0.9,0.2
							C374.1,96.1,374.1,96.3,374.2,96.5z M371.4,92.6c-0.8,0-1.2,0.7-1.7,1.8c-0.2,0.5-0.4,1.2-0.5,1.8c0.2-0.5,0.5-0.9,0.7-1.1
							c0.3-0.3,0.6-0.6,1-0.7c0-0.1-0.1-0.3-0.1-0.5c0-0.5,0.2-0.8,0.4-1c0,0,0.1-0.1,0.2-0.1C371.3,92.7,371.3,92.6,371.4,92.6z
							 M376.2,95.8c-0.1,0-0.2,0-0.2,0c0,0,0,0.1,0,0.1C376.1,95.9,376.1,95.9,376.2,95.8z M372.1,95.6c0,0,0,0.1,0,0.1
							C372.1,95.7,372.2,95.6,372.1,95.6C372.2,95.6,372.1,95.6,372.1,95.6z M376.1,94c0,0.5-0.2,0.9-0.6,1.2c0.2-0.1,0.5-0.2,1-0.2
							c0.1,0,0.2,0,0.2,0c0.2-0.3,0.3-0.6,0.2-0.9C376.7,94.1,376.4,94.1,376.1,94z M373.6,95.2c0.4,0,0.7,0,0.9-0.1
							c0.6-0.3,0.8-0.8,0.8-1.2c0,0-0.1,0-0.1,0c-0.4-0.1-0.7-0.1-0.9-0.2c-0.2,0-0.4-0.1-0.6-0.1c0,0.4-0.1,0.9-0.3,1.3
							C373.5,95,373.6,95.1,373.6,95.2z M372,94.1c0.3,0,0.6,0.1,0.8,0.3c0.1-0.3,0.2-0.7,0.2-0.9c-0.4-0.1-0.7-0.1-1-0.1
							C371.9,93.6,371.9,93.8,372,94.1z M377.7,93.6c0.6,0.2,1.2,0.4,1.7,0.7c-0.1-0.3-0.3-0.7-0.5-1c-0.6-0.9-1.5-1.5-2.6-1.9
							c0.4,0.4,0.8,0.8,1,1.3C377.5,93,377.6,93.3,377.7,93.6z M376.1,93.2c0.2,0,0.5,0.1,0.8,0.1c0-0.1-0.1-0.2-0.1-0.3
							c-0.4-0.7-1-1.3-1.9-1.7C375.4,91.8,375.9,92.5,376.1,93.2z M373.5,92.8c0.1,0,0.2,0.1,0.3,0.1c0.2,0.1,0.4,0.1,0.6,0.1
							c0.2,0,0.5,0.1,0.8,0.1c-0.2-0.5-0.6-1-1.1-1.3c-0.4-0.2-0.9-0.3-1.5,0.2c0,0,0,0,0,0C373,92.2,373.3,92.4,373.5,92.8z
							 M372.4,91.2c-0.5,0.1-1,0.3-1.4,0.6c0.2,0,0.5-0.1,0.8,0c0.1-0.1,0.2-0.3,0.4-0.4C372.2,91.3,372.3,91.3,372.4,91.2z"/>
					</g>
				</g>
			</g>
			<g>
				<g>
					<path class="st2" d="M377.8,115.6c-0.2,0-0.4-0.2-0.4-0.4v-12.1c0-0.2,0.2-0.4,0.4-0.4c0.2,0,0.4,0.2,0.4,0.4v12.1
						C378.1,115.4,378,115.6,377.8,115.6z"/>
				</g>
			</g>
			<g>
				<g>
					<path class="st2" d="M412.6,115.6c-0.2,0-0.4-0.2-0.4-0.4v-12.1c0-0.2,0.2-0.4,0.4-0.4c0.2,0,0.4,0.2,0.4,0.4v12.1
						C413,115.4,412.8,115.6,412.6,115.6z"/>
				</g>
			</g>
			<g>
				<g>
					<path class="st2" d="M479.1,120.7h-32.9c-0.2,0-0.4-0.2-0.4-0.4v-18.5c0-0.2,0.2-0.4,0.4-0.4h32.9c0.2,0,0.4,0.2,0.4,0.4v18.5
						C479.5,120.6,479.3,120.7,479.1,120.7z M446.7,120h32.1v-17.8h-32.1V120z"/>
				</g>
			</g>
			<g>
				<g>
					<path class="st2" d="M446.3,120.7H344.7c-0.2,0-0.4-0.2-0.4-0.4v-4c0-0.2,0.2-0.4,0.4-0.4h101.6c0.2,0,0.4,0.2,0.4,0.4v4
						C446.7,120.6,446.5,120.7,446.3,120.7z M345.1,120h100.8v-3.2H345.1V120z"/>
				</g>
			</g>
			<g>
				<g>
					<path class="st2" d="M475.4,116.8h-29.1c-0.2,0-0.4-0.2-0.4-0.4v-11c0-0.2,0.2-0.4,0.4-0.4h29.1c0.2,0,0.4,0.2,0.4,0.4v11
						C475.7,116.7,475.6,116.8,475.4,116.8z M446.7,116.1H475v-10.2h-28.3V116.1z"/>
				</g>
			</g>
			<g>
				<g>
					<path class="st2" d="M377.8,120.7c-0.2,0-0.4-0.2-0.4-0.4v-3.9c0-0.2,0.2-0.4,0.4-0.4c0.2,0,0.4,0.2,0.4,0.4v3.9
						C378.1,120.6,378,120.7,377.8,120.7z"/>
				</g>
			</g>
			<g>
				<g>
					<path class="st2" d="M412.6,119.4c-0.2,0-0.4-0.2-0.4-0.4v-2.6c0-0.2,0.2-0.4,0.4-0.4c0.2,0,0.4,0.2,0.4,0.4v2.6
						C413,119.2,412.8,119.4,412.6,119.4z"/>
				</g>
			</g>
			<g>
				<g>
					<path class="st2" d="M446.3,103.6c-0.2,0-0.4-0.2-0.4-0.4c0-0.2,0.2-0.4,0.4-0.4l32.9-0.6c0.2,0,0.4,0.2,0.4,0.4
						c0,0.2-0.2,0.4-0.4,0.4L446.3,103.6C446.3,103.6,446.3,103.6,446.3,103.6z"/>
				</g>
			</g>
			<g>
				<g>
					<path class="st2" d="M479.1,104.8C479.1,104.8,479.1,104.8,479.1,104.8l-32.9-0.2c-0.2,0-0.4-0.2-0.4-0.4
						c0-0.2,0.2-0.4,0.4-0.4c0,0,0,0,0,0l32.9,0.2c0.2,0,0.4,0.2,0.4,0.4C479.5,104.7,479.3,104.8,479.1,104.8z"/>
				</g>
			</g>
			<g>
				<g>
					<path class="st2" d="M475.4,106.6c-0.2,0-0.4-0.1-0.4-0.3c0-0.2,0.1-0.4,0.3-0.4l3.8-0.4c0.2,0,0.4,0.1,0.4,0.3
						c0,0.2-0.1,0.4-0.3,0.4L475.4,106.6C475.4,106.6,475.4,106.6,475.4,106.6z"/>
				</g>
			</g>
			<g>
				<g>
					<path class="st2" d="M479.1,107.5h-3.8c-0.2,0-0.4-0.2-0.4-0.4c0-0.2,0.2-0.4,0.4-0.4h3.8c0.2,0,0.4,0.2,0.4,0.4
						C479.5,107.4,479.3,107.5,479.1,107.5z"/>
				</g>
			</g>
			<g>
				<g>
					<path class="st2" d="M475.4,109c-0.2,0-0.4-0.1-0.4-0.3c0-0.2,0.1-0.4,0.3-0.4l3.8-0.3c0.2,0,0.4,0.1,0.4,0.3
						c0,0.2-0.1,0.4-0.3,0.4L475.4,109C475.4,109,475.4,109,475.4,109z"/>
				</g>
			</g>
			<g>
				<g>
					<path class="st2" d="M479.1,111C479.1,111,479.1,111,479.1,111l-3.8-0.2c-0.2,0-0.4-0.2-0.4-0.4c0-0.2,0.2-0.4,0.4-0.4l3.8,0.2
						c0.2,0,0.4,0.2,0.4,0.4C479.5,110.8,479.3,111,479.1,111z"/>
				</g>
			</g>
			<g>
				<g>
					<path class="st2" d="M475.4,112.1c-0.2,0-0.4-0.2-0.4-0.4c0-0.2,0.2-0.4,0.4-0.4l3.8,0c0,0,0,0,0,0c0.2,0,0.4,0.2,0.4,0.4
						c0,0.2-0.2,0.4-0.4,0.4L475.4,112.1C475.4,112.1,475.4,112.1,475.4,112.1z"/>
				</g>
			</g>
			<g>
				<g>
					<path class="st2" d="M475.4,113.8c-0.2,0-0.4-0.1-0.4-0.3c0-0.2,0.1-0.4,0.3-0.4l3.8-0.4c0.2,0,0.4,0.1,0.4,0.3
						c0,0.2-0.1,0.4-0.3,0.4L475.4,113.8C475.4,113.8,475.4,113.8,475.4,113.8z"/>
				</g>
			</g>
			<g>
				<g>
					<path class="st2" d="M479.1,115.1C479.1,115.1,479.1,115.1,479.1,115.1l-3.8-0.3c-0.2,0-0.4-0.2-0.4-0.4c0-0.2,0.2-0.4,0.4-0.4
						l3.8,0.3c0.2,0,0.4,0.2,0.4,0.4C479.5,114.9,479.3,115.1,479.1,115.1z"/>
				</g>
			</g>
			<g>
				<g>
					<path class="st2" d="M475.4,116.2c-0.2,0-0.4-0.2-0.4-0.4c0-0.2,0.2-0.4,0.4-0.4l3.5-0.1c0,0,0,0,0,0c0.2,0,0.4,0.2,0.4,0.4
						c0,0.2-0.2,0.4-0.4,0.4L475.4,116.2C475.4,116.2,475.4,116.2,475.4,116.2z"/>
				</g>
			</g>
			<g>
				<g>
					<path class="st2" d="M446.3,118.1c-0.2,0-0.4-0.2-0.4-0.4c0-0.2,0.2-0.4,0.4-0.4l32.9-0.5c0,0,0,0,0,0c0.2,0,0.4,0.2,0.4,0.4
						c0,0.2-0.2,0.4-0.4,0.4L446.3,118.1C446.3,118.1,446.3,118.1,446.3,118.1z"/>
				</g>
			</g>
			<g>
				<g>
					<path class="st2" d="M479.1,119.1C479.1,119.1,479.1,119.1,479.1,119.1l-32.9-0.1c-0.2,0-0.4-0.2-0.4-0.4
						c0-0.2,0.2-0.4,0.4-0.4c0,0,0,0,0,0l32.9,0.1c0.2,0,0.4,0.2,0.4,0.4C479.5,118.9,479.3,119.1,479.1,119.1z"/>
				</g>
			</g>
			<g>
				<g>
					<path class="st2" d="M446,118.7C446,118.7,446,118.7,446,118.7l-33.4-0.7c-0.2,0-0.4-0.2-0.4-0.4c0-0.2,0.2-0.4,0.4-0.4
						L446,118c0.2,0,0.4,0.2,0.4,0.4C446.4,118.6,446.2,118.7,446,118.7z"/>
				</g>
			</g>
			<g>
				<g>
					<path class="st2" d="M442,120.7C442,120.7,442,120.7,442,120.7l-29.4-1.7c-0.2,0-0.4-0.2-0.4-0.4c0-0.2,0.2-0.4,0.4-0.4
						l29.4,1.7c0.2,0,0.4,0.2,0.4,0.4C442.4,120.6,442.2,120.7,442,120.7z"/>
				</g>
			</g>
			<g>
				<g>
					<path class="st2" d="M412.6,118.1C412.6,118.1,412.6,118.1,412.6,118.1l-34.9-0.1c-0.2,0-0.4-0.2-0.4-0.4
						c0-0.2,0.2-0.4,0.4-0.4c0,0,0,0,0,0l34.9,0.1c0.2,0,0.4,0.2,0.4,0.4C413,117.9,412.8,118.1,412.6,118.1z"/>
				</g>
			</g>
			<g>
				<g>
					<path class="st2" d="M412.6,119.4C412.6,119.4,412.6,119.4,412.6,119.4l-34.9-0.3c-0.2,0-0.4-0.2-0.4-0.4
						c0-0.2,0.2-0.4,0.4-0.4c0,0,0,0,0,0l34.9,0.3c0.2,0,0.4,0.2,0.4,0.4C413,119.2,412.8,119.4,412.6,119.4z"/>
				</g>
			</g>
			<g>
				<g>
					<path class="st2" d="M397.9,120.7C397.9,120.7,397.9,120.7,397.9,120.7l-20.1-0.9c-0.2,0-0.4-0.2-0.4-0.4
						c0-0.2,0.2-0.4,0.4-0.4l20.1,0.9c0.2,0,0.4,0.2,0.4,0.4C398.3,120.6,398.1,120.7,397.9,120.7z"/>
				</g>
			</g>
			<g>
				<g>
					<path class="st2" d="M377.8,118C377.8,118,377.8,118,377.8,118l-29.1-1.3c-0.2,0-0.4-0.2-0.4-0.4c0-0.2,0.2-0.4,0.4-0.4
						l29.1,1.3c0.2,0,0.4,0.2,0.4,0.4C378.1,117.9,378,118,377.8,118z"/>
				</g>
			</g>
			<g>
				<g>
					<path class="st2" d="M377.8,119C377.8,119,377.8,119,377.8,119l-33.1-1.1c-0.2,0-0.4-0.2-0.4-0.4c0-0.2,0.2-0.4,0.4-0.4l33,1.1
						c0.2,0,0.4,0.2,0.4,0.4C378.1,118.8,378,119,377.8,119z"/>
				</g>
			</g>
			<g>
				<g>
					<path class="st2" d="M372.3,120.7C372.3,120.7,372.3,120.7,372.3,120.7l-27.6-1.4c-0.2,0-0.4-0.2-0.4-0.4
						c0-0.2,0.2-0.4,0.4-0.4l27.6,1.4c0.2,0,0.4,0.2,0.4,0.4C372.7,120.6,372.5,120.7,372.3,120.7z"/>
				</g>
			</g>
		</g>
		<g>
			<path class="st2" d="M525.3,72.5c-0.1,0-0.1,0-0.2-0.1l-6.5-3.9c-0.2-0.1-0.2-0.3-0.1-0.5c0.1-0.2,0.3-0.2,0.5-0.1l6.5,3.9
				c0.2,0.1,0.2,0.3,0.1,0.5C525.5,72.5,525.4,72.5,525.3,72.5z"/>
		</g>
		<g>
			<path class="st2" d="M298.3,130.3h-22.7c-0.2,0-0.4-0.2-0.4-0.4c0-0.2,0.2-0.4,0.4-0.4h22.7c0.2,0,0.4,0.2,0.4,0.4
				C298.7,130.2,298.5,130.3,298.3,130.3z"/>
		</g>
		<g>
			<path class="st2" d="M344,130.3h-32.4c-0.4,0-0.8-0.2-0.8-0.4c0-0.2,0.3-0.4,0.8-0.4H344c0.4,0,0.8,0.2,0.8,0.4
				C344.7,130.2,344.4,130.3,344,130.3z"/>
		</g>
		<g>
			<path class="st2" d="M467.7,130.3H356.3c-0.2,0-0.4-0.2-0.4-0.4c0-0.2,0.2-0.4,0.4-0.4h111.4c0.2,0,0.4,0.2,0.4,0.4
				C468.1,130.2,468,130.3,467.7,130.3z"/>
		</g>
		<g>
			<path class="st2" d="M518.4,130.3h-38.6c-0.5,0-0.9-0.2-0.9-0.4c0-0.2,0.4-0.4,0.9-0.4h38.6c0.5,0,0.9,0.2,0.9,0.4
				C519.3,130.2,518.9,130.3,518.4,130.3z"/>
		</g>
		<g>
			<path class="st2" d="M537.4,130.3h-9.5c-0.2,0-0.4-0.2-0.4-0.4c0-0.2,0.2-0.4,0.4-0.4h9.5c0.2,0,0.4,0.2,0.4,0.4
				C537.8,130.2,537.6,130.3,537.4,130.3z"/>
		</g>
	</g>
</g>
</svg>
